<svg id="Layer_1" data-name="Layer 1" xmlns="http://www.w3.org/2000/svg" viewBox="0 0 173.28 209.36"><defs><style>.cls-1{fill:#7ec78b;}.cls-1,.cls-2,.cls-3{stroke:#000;stroke-miterlimit:10;}.cls-1,.cls-2{stroke-width:4px;}.cls-2{fill:#6be493;}.cls-3{fill:none;}</style></defs><path class="cls-1" d="M688,426.07l-12.2.28-14.25-2.68c9.6-21,18.78-29.48,9.37-52.85C660.16,344,627.48,306.89,613.19,282a.05.05,0,0,1,0,0c-1.54-2.68-2.87-5.22-3.93-7.59-1.5-3.33-3.09-7.74-2.14-11.34a6.9,6.9,0,0,1,2.73-4c3.25-2.36,15.87-2.77,18.88-2.69,20.92,7.51,18.27,13.71,9.81,18.13,5.6,8.72,13.93,21.51,24.35,36.91,16.93,25,21.36,30.27,25.17,36.83C697.26,364.16,703.42,388.74,688,426.07Z" transform="translate(-596.75 -219)"/><path class="cls-2" d="M680.84,221a156.25,156.25,0,0,0-36.26,4.13c-19.93,4.79-35.82,13.4-44.27,24,.14.06.5.2,1,.43a212.65,212.65,0,0,1,27.28,6.92c8,2.76,14.83,6.19,15.84,10,1.24,4.71-6.32,10-31.31,15.43-3.82.83-8,1.66-12.72,2.49,8.48,10.57,24.32,19.13,44.16,23.89a156.25,156.25,0,0,0,36.26,4.13C729,312.46,768,292,768,266.73c0-.07,0-.13,0-.21-.21-25.16-39.16-45.52-87.18-45.52" transform="translate(-596.75 -219)"/><line class="cls-3" x1="47.53" y1="47.32" x2="135.02" y2="47.32"/><line class="cls-3" x1="69.1" y1="47.32" x2="87.38" y2="22.9"/><line class="cls-3" x1="69.7" y1="47.73" x2="87.38" y2="71.32"/></svg>