<svg xmlns="http://www.w3.org/2000/svg" viewBox="0 0 148.27 57.82"><defs><style>.cls-1{fill:#7ec78b;}.cls-1,.cls-2,.cls-3,.cls-4{stroke:#000;}.cls-1,.cls-2,.cls-3{stroke-miterlimit:10;}.cls-1,.cls-2{stroke-width:4px;}.cls-2{fill:#6be493;}.cls-3{fill:none;}.cls-4,.cls-5{font-size:30.55px;}.cls-4,.cls-5,.cls-7{font-family:Montserrat-SemiBold, Montserrat;font-weight:600;}.cls-6{letter-spacing:0em;}.cls-7{font-size:15.28px;fill:#8f8f8f;}.cls-8{letter-spacing:-0.06em;}.cls-9{letter-spacing:-0.01em;}.cls-10{letter-spacing:-0.01em;}</style></defs><g id="Layer_2" data-name="Layer 2"><g id="Layer_1-2" data-name="Layer 1"><path class="cls-1" d="M90.51,37.52l-2.11,0-2.47-.47c1.66-3.63,3.26-5.1,1.62-9.15-1.86-4.64-7.53-11.07-10-15.38h0c-.26-.46-.49-.9-.68-1.31a3.25,3.25,0,0,1-.37-2A1.18,1.18,0,0,1,77,8.6a8.94,8.94,0,0,1,3.27-.47c3.62,1.3,3.16,2.37,1.69,3.14,1,1.51,2.42,3.73,4.22,6.39,2.94,4.34,3.7,5.25,4.36,6.38C92.11,26.8,93.18,31.05,90.51,37.52Z"/><path class="cls-2" d="M89.27,2A27,27,0,0,0,83,2.72c-3.45.82-6.21,2.32-7.67,4.16L75.5,7a38,38,0,0,1,4.72,1.2c1.39.48,2.57,1.07,2.74,1.74s-1.09,1.73-5.42,2.67c-.66.14-1.39.28-2.2.43,1.47,1.83,4.21,3.31,7.65,4.14a27,27,0,0,0,6.28.71c8.34,0,15.1-3.54,15.1-7.92v0c0-4.36-6.78-7.89-15.1-7.89"/><line class="cls-3" x1="82.94" y1="9.85" x2="98.09" y2="9.85"/><line class="cls-3" x1="86.67" y1="9.85" x2="89.84" y2="5.62"/><line class="cls-3" x1="86.78" y1="9.92" x2="89.84" y2="14.01"/><text class="cls-4" transform="translate(16.64 33.66)">Lilly</text><text class="cls-5" transform="translate(95.14 33.74)"><tspan class="cls-6">a</tspan><tspan x="18.7" y="0">d</tspan></text><text class="cls-7" transform="translate(0 53.77)"><tspan class="cls-8">W</tspan><tspan x="16.64" y="0">eb D</tspan><tspan class="cls-9" x="53.46" y="0">e</tspan><tspan class="cls-10" x="62.81" y="0">v</tspan><tspan x="71.41" y="0">elop</tspan><tspan class="cls-6" x="105.66" y="0">m</tspan><tspan x="121.82" y="0">ent</tspan></text></g></g></svg>