<svg id="Layer_1" data-name="Layer 1" xmlns="http://www.w3.org/2000/svg" viewBox="0 0 148.27 57.82"><defs><style>.cls-1{fill:#7ec78b;}.cls-1,.cls-2,.cls-3,.cls-4{stroke:#000;}.cls-1,.cls-2,.cls-3{stroke-miterlimit:10;}.cls-1,.cls-2{stroke-width:4px;}.cls-2{fill:#6be493;}.cls-3{fill:none;}.cls-4,.cls-5{font-size:30.55px;}.cls-4,.cls-5,.cls-7{font-family:Montserrat-SemiBold, Montserrat;font-weight:600;}.cls-6{letter-spacing:0em;}.cls-7{font-size:15.28px;fill:#8f8f8f;}.cls-8{letter-spacing:-0.06em;}.cls-9{letter-spacing:-0.01em;}.cls-10{letter-spacing:-0.01em;}</style></defs><path class="cls-1" d="M589,354.7l-2.12.05-2.46-.47c1.66-3.63,3.25-5.1,1.62-9.15-1.87-4.64-7.53-11.07-10-15.38h0a12.76,12.76,0,0,1-.68-1.31,3.18,3.18,0,0,1-.37-2,1.22,1.22,0,0,1,.47-.69,8.72,8.72,0,0,1,3.27-.46c3.63,1.3,3.17,2.37,1.7,3.14,1,1.51,2.41,3.72,4.22,6.39,2.93,4.33,3.7,5.24,4.36,6.38C590.62,344,591.68,348.23,589,354.7Z" transform="translate(-498.5 -317.18)"/><path class="cls-2" d="M587.77,319.18a27,27,0,0,0-6.28.71c-3.45.83-6.2,2.32-7.67,4.17l.18.07a37.53,37.53,0,0,1,4.72,1.2c1.39.48,2.57,1.07,2.75,1.73.21.82-1.1,1.74-5.42,2.67-.67.15-1.4.29-2.21.44,1.47,1.83,4.22,3.31,7.65,4.13a27,27,0,0,0,6.28.72c8.34,0,15.1-3.55,15.1-7.92v0c0-4.36-6.78-7.88-15.1-7.88" transform="translate(-498.5 -317.18)"/><line class="cls-3" x1="82.94" y1="9.85" x2="98.09" y2="9.85"/><line class="cls-3" x1="86.67" y1="9.85" x2="89.84" y2="5.62"/><line class="cls-3" x1="86.78" y1="9.92" x2="89.84" y2="14.01"/><text class="cls-4" transform="translate(16.64 33.66)">Lilly</text><text class="cls-5" transform="translate(95.14 33.74)"><tspan class="cls-6">a</tspan><tspan x="18.7" y="0">d</tspan></text><text class="cls-7" transform="translate(0 53.77)"><tspan class="cls-8">W</tspan><tspan x="16.64" y="0">eb D</tspan><tspan class="cls-9" x="53.46" y="0">e</tspan><tspan class="cls-10" x="62.81" y="0">v</tspan><tspan x="71.41" y="0">elop</tspan><tspan class="cls-6" x="105.66" y="0">m</tspan><tspan x="121.82" y="0">ent</tspan></text></svg>