<svg xmlns="http://www.w3.org/2000/svg" viewBox="0 0 291.03 96.18"><defs><style>.cls-1{fill:#7ec78b;}.cls-1,.cls-2,.cls-3,.cls-4{stroke:#000;}.cls-1,.cls-2,.cls-3{stroke-miterlimit:10;}.cls-1,.cls-2{stroke-width:4px;}.cls-2{fill:#6be493;}.cls-3{fill:none;}.cls-4,.cls-5{font-size:72px;font-family:Montserrat-SemiBold, Montserrat;font-weight:600;}.cls-6{letter-spacing:0em;}</style></defs><g id="Layer_2" data-name="Layer 2"><g id="Layer_1-2" data-name="Layer 1"><path class="cls-1" d="M186.59,85.7l-5,.12-5.82-1.1c3.92-8.55,7.67-12,3.82-21.57-4.4-10.94-29.74-26.09-35.57-36.24v0a34.55,34.55,0,0,1-1.61-3.1c-.61-1.36-1.26-3.16-.87-4.63a2.82,2.82,0,0,1,1.12-1.62c1.32-1,6.47-1.13,7.7-1.1,27.5,9.89,20.5-1.21,4,7.4,2.29,3.56,17.69,8.78,21.94,15.07,6.91,10.21,8.72,12.36,10.28,15C190.35,60.43,192.87,70.46,186.59,85.7Z"/><path class="cls-2" d="M219.24,20.58C219.15,10.31,203.25,2,183.65,2a63.35,63.35,0,0,0-14.8,1.69c-8.13,1.95-14.62,5.46-18.07,9.81l.42.17a86.65,86.65,0,0,1,11.13,2.83c3.27,1.13,6.06,2.52,6.47,4.08.51,1.92-2.58,4.09-12.78,6.3q-2.34.5-5.19,1c3.46,4.32,9.92,7.81,18,9.76a63.91,63.91,0,0,0,14.8,1.68c19.66,0,35.59-8.36,35.59-18.66Z"/><line class="cls-3" x1="168.73" y1="20.5" x2="204.44" y2="20.5"/><line class="cls-3" x1="177.54" y1="20.5" x2="185" y2="10.53"/><line class="cls-3" x1="177.78" y1="20.67" x2="185" y2="30.29"/><text class="cls-4" transform="translate(0.5 76.6)">Lilly</text><text class="cls-5" transform="translate(197.5 76.8)"><tspan class="cls-6">a</tspan><tspan x="44.06" y="0">d</tspan></text></g></g></svg>