<svg id="Layer_1" data-name="Layer 1" xmlns="http://www.w3.org/2000/svg" viewBox="0 0 302.03 96.18"><defs><style>.cls-1{fill:#7ec78b;}.cls-1,.cls-2,.cls-3,.cls-4{stroke:#707070;}.cls-1,.cls-2,.cls-3{stroke-miterlimit:10;}.cls-1,.cls-2{stroke-width:4px;}.cls-2{fill:#6be493;}.cls-3{fill:none;}.cls-4,.cls-5{font-size:72px;fill:#707070;font-family:Montserrat-SemiBold, Montserrat;font-weight:600;}.cls-6{letter-spacing:0em;}</style></defs><path class="cls-1" d="M708.31,381.93l-5,.12-5.82-1.1c3.92-8.55,7.67-12,3.83-21.57-4.41-10.94-17.74-26.09-23.58-36.24v0c-.63-1.1-1.17-2.13-1.61-3.1-.6-1.36-1.25-3.16-.87-4.63a2.85,2.85,0,0,1,1.12-1.62c1.32-1,6.48-1.13,7.7-1.1,8.54,3.07,7.46,5.6,4,7.41,2.28,3.55,5.68,8.77,9.94,15.06,6.91,10.21,8.72,12.36,10.27,15C712.08,356.66,714.59,366.69,708.31,381.93Z" transform="translate(-510.72 -296.23)"/><path class="cls-2" d="M741,316.81c-.09-10.27-16-18.58-35.59-18.58a63.74,63.74,0,0,0-14.79,1.69c-8.14,1.95-14.63,5.46-18.07,9.81l.41.17a85.83,85.83,0,0,1,11.13,2.83c3.27,1.13,6.06,2.52,6.47,4.08.51,1.92-2.58,4.09-12.78,6.3-1.56.34-3.28.67-5.19,1,3.46,4.32,9.93,7.81,18,9.76a63.76,63.76,0,0,0,14.79,1.68c19.66,0,35.59-8.35,35.59-18.66Z" transform="translate(-510.72 -296.23)"/><line class="cls-3" x1="179.73" y1="20.5" x2="215.44" y2="20.5"/><line class="cls-3" x1="188.54" y1="20.5" x2="196" y2="10.53"/><line class="cls-3" x1="188.78" y1="20.67" x2="196" y2="30.29"/><text class="cls-4" transform="translate(0.5 76.6)">Lilly</text><text class="cls-5" transform="translate(208.5 76.8)"><tspan class="cls-6">a</tspan><tspan x="44.06" y="0">d</tspan></text></svg>